<mxfile host="app.diagrams.net" agent="Mozilla/5.0 (Windows NT 10.0; Win64; x64) AppleWebKit/537.36 (KHTML, like Gecko) Chrome/126.0.0.0 Whale/3.27.254.15 Safari/537.36" version="24.7.6">
  <diagram name="페이지-1" id="QM7ocOrHrc-ywiHIguHA">
    <mxGraphModel dx="1321" dy="955" grid="1" gridSize="10" guides="1" tooltips="1" connect="1" arrows="1" fold="1" page="1" pageScale="1" pageWidth="1169" pageHeight="827" math="0" shadow="0">
      <root>
        <mxCell id="0" />
        <mxCell id="1" parent="0" />
        <mxCell id="ADXxkapIHS1w_zyvAE5N-28" style="edgeStyle=orthogonalEdgeStyle;rounded=0;orthogonalLoop=1;jettySize=auto;html=1;entryX=0;entryY=0.5;entryDx=0;entryDy=0;endArrow=none;endFill=0;curved=0;" parent="1" source="ADXxkapIHS1w_zyvAE5N-1" target="ADXxkapIHS1w_zyvAE5N-8" edge="1">
          <mxGeometry relative="1" as="geometry" />
        </mxCell>
        <mxCell id="ADXxkapIHS1w_zyvAE5N-32" style="edgeStyle=orthogonalEdgeStyle;rounded=0;orthogonalLoop=1;jettySize=auto;html=1;entryX=0;entryY=0.5;entryDx=0;entryDy=0;endArrow=none;endFill=0;" parent="1" source="ADXxkapIHS1w_zyvAE5N-1" target="ADXxkapIHS1w_zyvAE5N-15" edge="1">
          <mxGeometry relative="1" as="geometry" />
        </mxCell>
        <mxCell id="ADXxkapIHS1w_zyvAE5N-33" style="edgeStyle=orthogonalEdgeStyle;rounded=0;orthogonalLoop=1;jettySize=auto;html=1;entryX=0;entryY=0.5;entryDx=0;entryDy=0;endArrow=none;endFill=0;" parent="1" source="ADXxkapIHS1w_zyvAE5N-1" target="ADXxkapIHS1w_zyvAE5N-20" edge="1">
          <mxGeometry relative="1" as="geometry" />
        </mxCell>
        <mxCell id="ADXxkapIHS1w_zyvAE5N-1" value="사용자" style="shape=umlActor;verticalLabelPosition=bottom;verticalAlign=top;html=1;outlineConnect=0;" parent="1" vertex="1">
          <mxGeometry x="130" y="410" width="30" height="60" as="geometry" />
        </mxCell>
        <mxCell id="ADXxkapIHS1w_zyvAE5N-8" value="지도 조회" style="ellipse;whiteSpace=wrap;html=1;" parent="1" vertex="1">
          <mxGeometry x="355" y="200" width="120" height="60" as="geometry" />
        </mxCell>
        <mxCell id="ADXxkapIHS1w_zyvAE5N-24" value="" style="edgeStyle=orthogonalEdgeStyle;rounded=0;orthogonalLoop=1;jettySize=auto;html=1;dashed=1;endArrow=open;endFill=0;" parent="1" source="ADXxkapIHS1w_zyvAE5N-15" target="ADXxkapIHS1w_zyvAE5N-8" edge="1">
          <mxGeometry relative="1" as="geometry" />
        </mxCell>
        <mxCell id="ADXxkapIHS1w_zyvAE5N-25" value="&amp;lt;&amp;lt;include&amp;gt;&amp;gt;" style="edgeLabel;html=1;align=center;verticalAlign=middle;resizable=0;points=[];" parent="ADXxkapIHS1w_zyvAE5N-24" vertex="1" connectable="0">
          <mxGeometry x="-0.2381" y="1" relative="1" as="geometry">
            <mxPoint x="1" y="-15" as="offset" />
          </mxGeometry>
        </mxCell>
        <mxCell id="ADXxkapIHS1w_zyvAE5N-22" value="&amp;lt;&amp;lt;include&amp;gt;&amp;gt;" style="edgeLabel;html=1;align=center;verticalAlign=middle;resizable=0;points=[];" parent="1" vertex="1" connectable="0">
          <mxGeometry x="1580.0033333333336" y="1310" as="geometry" />
        </mxCell>
        <mxCell id="oRaf55NZsHwc-dt8a6Yf-2" value="&lt;font style=&quot;font-size: 13px;&quot;&gt;경로 안내&lt;/font&gt;" style="swimlane;whiteSpace=wrap;html=1;startSize=30;" parent="1" vertex="1">
          <mxGeometry x="200" y="140" width="600" height="580" as="geometry" />
        </mxCell>
        <mxCell id="ADXxkapIHS1w_zyvAE5N-20" value="경로 내&lt;div&gt;도로 정보 조회&lt;/div&gt;" style="ellipse;whiteSpace=wrap;html=1;" parent="oRaf55NZsHwc-dt8a6Yf-2" vertex="1">
          <mxGeometry x="155" y="500" width="120" height="60" as="geometry" />
        </mxCell>
        <mxCell id="ADXxkapIHS1w_zyvAE5N-15" value="최적 경로&amp;nbsp;&lt;span style=&quot;background-color: initial;&quot;&gt;검색&lt;/span&gt;" style="ellipse;whiteSpace=wrap;html=1;" parent="oRaf55NZsHwc-dt8a6Yf-2" vertex="1">
          <mxGeometry x="155" y="270" width="120" height="60" as="geometry" />
        </mxCell>
        <mxCell id="ADXxkapIHS1w_zyvAE5N-17" value="출발지를&lt;div&gt;입력한다&lt;/div&gt;" style="ellipse;whiteSpace=wrap;html=1;" parent="oRaf55NZsHwc-dt8a6Yf-2" vertex="1">
          <mxGeometry x="420" y="190" width="120" height="60" as="geometry" />
        </mxCell>
        <mxCell id="ADXxkapIHS1w_zyvAE5N-29" value="목적지를&lt;div&gt;입력한다&lt;/div&gt;" style="ellipse;whiteSpace=wrap;html=1;" parent="oRaf55NZsHwc-dt8a6Yf-2" vertex="1">
          <mxGeometry x="420" y="270" width="120" height="60" as="geometry" />
        </mxCell>
        <mxCell id="ADXxkapIHS1w_zyvAE5N-21" value="" style="edgeStyle=orthogonalEdgeStyle;rounded=0;orthogonalLoop=1;jettySize=auto;html=1;dashed=1;endArrow=open;endFill=0;" parent="oRaf55NZsHwc-dt8a6Yf-2" source="ADXxkapIHS1w_zyvAE5N-20" target="ADXxkapIHS1w_zyvAE5N-15" edge="1">
          <mxGeometry relative="1" as="geometry" />
        </mxCell>
        <mxCell id="ADXxkapIHS1w_zyvAE5N-23" value="&amp;lt;&amp;lt;extend&amp;gt;&amp;gt;" style="edgeLabel;html=1;align=center;verticalAlign=middle;resizable=0;points=[];" parent="ADXxkapIHS1w_zyvAE5N-21" vertex="1" connectable="0">
          <mxGeometry x="0.2475" y="1" relative="1" as="geometry">
            <mxPoint x="1" y="6" as="offset" />
          </mxGeometry>
        </mxCell>
        <mxCell id="ADXxkapIHS1w_zyvAE5N-18" value="" style="edgeStyle=orthogonalEdgeStyle;rounded=0;orthogonalLoop=1;jettySize=auto;html=1;dashed=1;endArrow=open;endFill=0;entryX=0;entryY=0.5;entryDx=0;entryDy=0;" parent="oRaf55NZsHwc-dt8a6Yf-2" source="ADXxkapIHS1w_zyvAE5N-15" target="ADXxkapIHS1w_zyvAE5N-17" edge="1">
          <mxGeometry relative="1" as="geometry">
            <Array as="points">
              <mxPoint x="360" y="300" />
              <mxPoint x="360" y="220" />
            </Array>
          </mxGeometry>
        </mxCell>
        <mxCell id="ADXxkapIHS1w_zyvAE5N-19" value="&amp;lt;&amp;lt;include&amp;gt;&amp;gt;" style="edgeLabel;html=1;align=center;verticalAlign=middle;resizable=0;points=[];" parent="ADXxkapIHS1w_zyvAE5N-18" vertex="1" connectable="0">
          <mxGeometry x="0.1458" relative="1" as="geometry">
            <mxPoint x="-41" y="34" as="offset" />
          </mxGeometry>
        </mxCell>
        <mxCell id="ADXxkapIHS1w_zyvAE5N-30" style="edgeStyle=orthogonalEdgeStyle;rounded=0;orthogonalLoop=1;jettySize=auto;html=1;dashed=1;endArrow=open;endFill=0;exitX=1;exitY=0.5;exitDx=0;exitDy=0;" parent="oRaf55NZsHwc-dt8a6Yf-2" source="ADXxkapIHS1w_zyvAE5N-15" edge="1">
          <mxGeometry relative="1" as="geometry">
            <Array as="points">
              <mxPoint x="420" y="300" />
            </Array>
            <mxPoint x="420" y="300" as="targetPoint" />
          </mxGeometry>
        </mxCell>
        <mxCell id="1wFjq2a3WxG1-liffLTs-3" value="지도 조회&amp;nbsp;&lt;span style=&quot;background-color: initial;&quot;&gt;실패&lt;/span&gt;&lt;div&gt;&lt;span style=&quot;background-color: initial;&quot;&gt;메시지 출력&lt;/span&gt;&lt;/div&gt;" style="ellipse;whiteSpace=wrap;html=1;" vertex="1" parent="oRaf55NZsHwc-dt8a6Yf-2">
          <mxGeometry x="420" y="60" width="120" height="60" as="geometry" />
        </mxCell>
        <mxCell id="1wFjq2a3WxG1-liffLTs-7" style="edgeStyle=orthogonalEdgeStyle;rounded=0;orthogonalLoop=1;jettySize=auto;html=1;entryX=1;entryY=1;entryDx=0;entryDy=0;dashed=1;endArrow=open;endFill=0;" edge="1" parent="oRaf55NZsHwc-dt8a6Yf-2" source="1wFjq2a3WxG1-liffLTs-6" target="ADXxkapIHS1w_zyvAE5N-15">
          <mxGeometry relative="1" as="geometry" />
        </mxCell>
        <mxCell id="1wFjq2a3WxG1-liffLTs-8" value="&amp;lt;&amp;lt;extend&amp;gt;&amp;gt;" style="edgeLabel;html=1;align=center;verticalAlign=middle;resizable=0;points=[];" vertex="1" connectable="0" parent="1wFjq2a3WxG1-liffLTs-7">
          <mxGeometry x="-0.1083" y="3" relative="1" as="geometry">
            <mxPoint x="28" y="-13" as="offset" />
          </mxGeometry>
        </mxCell>
        <mxCell id="1wFjq2a3WxG1-liffLTs-6" value="경로 검색 실패&lt;div&gt;메시지 출력&lt;/div&gt;" style="ellipse;whiteSpace=wrap;html=1;" vertex="1" parent="oRaf55NZsHwc-dt8a6Yf-2">
          <mxGeometry x="420" y="352" width="120" height="60" as="geometry" />
        </mxCell>
        <mxCell id="1wFjq2a3WxG1-liffLTs-10" style="edgeStyle=orthogonalEdgeStyle;rounded=0;orthogonalLoop=1;jettySize=auto;html=1;entryX=1;entryY=1;entryDx=0;entryDy=0;dashed=1;endArrow=open;endFill=0;" edge="1" parent="oRaf55NZsHwc-dt8a6Yf-2" source="1wFjq2a3WxG1-liffLTs-9" target="ADXxkapIHS1w_zyvAE5N-15">
          <mxGeometry relative="1" as="geometry" />
        </mxCell>
        <mxCell id="1wFjq2a3WxG1-liffLTs-11" value="&amp;lt;&amp;lt;include&amp;gt;&amp;gt;" style="edgeLabel;html=1;align=center;verticalAlign=middle;resizable=0;points=[];" vertex="1" connectable="0" parent="1wFjq2a3WxG1-liffLTs-10">
          <mxGeometry x="-0.6251" relative="1" as="geometry">
            <mxPoint x="-15" y="-10" as="offset" />
          </mxGeometry>
        </mxCell>
        <mxCell id="1wFjq2a3WxG1-liffLTs-9" value="경로 정보 조회" style="ellipse;whiteSpace=wrap;html=1;" vertex="1" parent="oRaf55NZsHwc-dt8a6Yf-2">
          <mxGeometry x="420" y="430" width="120" height="60" as="geometry" />
        </mxCell>
        <mxCell id="1wFjq2a3WxG1-liffLTs-4" style="edgeStyle=orthogonalEdgeStyle;rounded=0;orthogonalLoop=1;jettySize=auto;html=1;entryX=1;entryY=0.5;entryDx=0;entryDy=0;dashed=1;endArrow=open;endFill=0;" edge="1" parent="1" source="1wFjq2a3WxG1-liffLTs-3" target="ADXxkapIHS1w_zyvAE5N-8">
          <mxGeometry relative="1" as="geometry" />
        </mxCell>
        <mxCell id="1wFjq2a3WxG1-liffLTs-5" value="&amp;lt;&amp;lt;extend&amp;gt;&amp;gt;" style="edgeLabel;html=1;align=center;verticalAlign=middle;resizable=0;points=[];" vertex="1" connectable="0" parent="1wFjq2a3WxG1-liffLTs-4">
          <mxGeometry x="-0.5172" y="-1" relative="1" as="geometry">
            <mxPoint x="-35" y="-9" as="offset" />
          </mxGeometry>
        </mxCell>
      </root>
    </mxGraphModel>
  </diagram>
</mxfile>
